<mxfile host="app.diagrams.net" modified="2023-04-07T12:34:35.633Z" agent="Mozilla/5.0 (Windows NT 10.0; Win64; x64) AppleWebKit/537.36 (KHTML, like Gecko) Chrome/111.0.0.0 Safari/537.36" version="21.1.5" etag="XXTce2zoAwGG7D2TrlgN" type="github">
  <diagram name="Halaman-1" id="Ywr9QHLUBhNiAVQOPzEp">
    <mxGraphModel>
      <root>
        <mxCell id="0" />
        <mxCell id="1" parent="0" />
      </root>
    </mxGraphModel>
  </diagram>
</mxfile>
